<?xml version="1.0" encoding="UTF-8" standalone="no"?>
<!-- Created with Inkscape (http://www.inkscape.org/) -->

<svg
   xmlns:dc="http://purl.org/dc/elements/1.1/"
   xmlns:cc="http://creativecommons.org/ns#"
   xmlns:rdf="http://www.w3.org/1999/02/22-rdf-syntax-ns#"
   xmlns:svg="http://www.w3.org/2000/svg"
   xmlns="http://www.w3.org/2000/svg"
   xmlns:sodipodi="http://sodipodi.sourceforge.net/DTD/sodipodi-0.dtd"
   xmlns:inkscape="http://www.inkscape.org/namespaces/inkscape"
   width="210mm"
   height="297mm"
   viewBox="0 0 210 297"
   version="1.1"
   id="svg8"
   inkscape:version="0.92.2 (5c3e80d, 2017-08-06)"
   sodipodi:docname="icons.svg">
  <defs
     id="defs2" />
  <sodipodi:namedview
     id="base"
     pagecolor="#ffffff"
     bordercolor="#666666"
     borderopacity="1.0"
     inkscape:pageopacity="0.0"
     inkscape:pageshadow="2"
     inkscape:zoom="0.49497475"
     inkscape:cx="349.74733"
     inkscape:cy="1565.2584"
     inkscape:document-units="mm"
     inkscape:current-layer="layer1"
     showgrid="false"
     inkscape:window-width="3840"
     inkscape:window-height="2035"
     inkscape:window-x="-13"
     inkscape:window-y="-13"
     inkscape:window-maximized="1" />
  <metadata
     id="metadata5">
    <rdf:RDF>
      <cc:Work
         rdf:about="">
        <dc:format>image/svg+xml</dc:format>
        <dc:type
           rdf:resource="http://purl.org/dc/dcmitype/StillImage" />
        <dc:title></dc:title>
      </cc:Work>
    </rdf:RDF>
  </metadata>
  <g
     inkscape:label="Layer 1"
     inkscape:groupmode="layer"
     id="layer1">
    <path
       style="fill:#ef0500;fill-opacity:1;stroke:#b00400;stroke-width:13.22916698;stroke-linecap:butt;stroke-linejoin:miter;stroke-miterlimit:4;stroke-dasharray:none;stroke-opacity:1"
       d="m 189.94258,-381.95437 c -17.27052,-0.16275 -35.59056,6.334 -53.8665,23.76224 -75.461942,71.96181 151.67206,268.624455 151.67206,268.624455 0,0 227.13485,-196.662645 151.67292,-268.624455 -75.46193,-71.96179 -151.67292,42.45405 -151.67292,42.45405 0,0 -43.76556,-65.70701 -97.80556,-66.21629 z"
       id="path847"
       inkscape:connector-curvature="0" />
    <path
       style="fill:#4f4f4f;fill-opacity:1;stroke:#000000;stroke-width:13.22916603;stroke-linecap:butt;stroke-linejoin:miter;stroke-miterlimit:4;stroke-dasharray:none;stroke-opacity:1"
       d="m 711.71211,-405.4899 c 0,0 -227.13487,196.66261 -151.67292,268.62442 52.29042,49.865048 104.93168,12.57833 132.33508,-16.45894 l -40.71173,80.768195 c 38.12006,13.359376 88.19192,15.205998 128.06918,0 0.15174,-0.303451 -24.46853,-45.182715 -44.14097,-80.768195 17.92931,17.85657 44.39352,39.94299 73.92676,40.22132 17.27051,0.16275 35.59053,-6.33414 53.86646,-23.76238 75.46195,-71.96181 -151.67186,-268.62442 -151.67186,-268.62442 z"
       id="path847-7"
       inkscape:connector-curvature="0"
       sodipodi:nodetypes="csccccssc" />
    <path
       style="fill:#ffc50d;fill-opacity:1;stroke:#ca9900;stroke-width:13.22916603;stroke-linecap:butt;stroke-linejoin:miter;stroke-miterlimit:4;stroke-dasharray:none;stroke-opacity:1"
       d="m -225.78824,-266.5052 c -229.24468,-9.03836 -71.23006,263.6137768 42.01067,122.55861 -3.84637,41.10162 -21.98732,51.408942 -33.44706,75.274997 40.07083,14.658167 90.51082,11.600349 128.069189,0 0.212,-0.423971 -34.748279,-45.668437 -39.068919,-79.155287 139.364759,150.4319068 264.84579,-145.49871 36.070859,-118.67832 139.59265,-183.52642 -278.925249,-200.71148 -133.634739,0 z"
       id="path880-4"
       inkscape:connector-curvature="0"
       sodipodi:nodetypes="ccccccc" />
    <path
       style="fill:#6b3fa0;fill-opacity:1;stroke:#9a75c9;stroke-width:13.71159935;stroke-linecap:butt;stroke-linejoin:miter;stroke-miterlimit:4;stroke-dasharray:none;stroke-opacity:1"
       d="M -400.66927,-232.29703 -545.44314,-70.178798 -680.16683,-232.29703 -545.44314,-399.03839 Z"
       id="path932"
       inkscape:connector-curvature="0"
       sodipodi:nodetypes="ccccc" />
  </g>
</svg>
